# xmcd CD database file generated by Grip 3.2.0
# 
# Track frame offsets:
#       150
#       16610
#       31028
#       49328
#       60608
#       75865
#       94705
#       119313
#       133340
#       150390
#       167998
#       187480
# 
# Disc length: 2816 seconds
# 
# Revision: 6
# Processed by: cddbd v1.5.2PL0 Copyright (c) Steve Scherf et al.
# Submitted via: Grip 3.2.0
# 
DISCID=930afe0c
DTITLE=Nina Simone - The Best Nina Simone
DYEAR=1990
DGENRE=Jazz
TTITLE0=My Baby Just Cares For Me
TTITLE1=Don't Smoke In Bed
TTITLE2=Mood Indigo
TTITLE3=He Needs Me
TTITLE4=Love Me Or Leave Me
TTITLE5=I Loves You Porgy
TTITLE6=Good Bait
TTITLE7=Central Park Blues
TTITLE8=You'll Never Walk Alone
TTITLE9=Plain Gold Ring
TTITLE10=Little Girl Blue
TTITLE11=My Baby Just Cares For Me (special extended version)
EXTD=
EXTT0=
EXTT1=
EXTT2=
EXTT3=
EXTT4=
EXTT5=
EXTT6=
EXTT7=
EXTT8=
EXTT9=
EXTT10=
EXTT11=
PLAYORDER=
